<svg width="16" height="16" viewBox="0 0 16 16" fill="none" xmlns="http://www.w3.org/2000/svg">
<path d="M8.00144 8.90998C7.30759 8.91081 6.6349 8.6711 6.09793 8.23168C5.56095 7.79225 5.1929 7.18028 5.05644 6.49998C5.04557 6.42832 5.0504 6.35515 5.07061 6.28554C5.09082 6.21593 5.12592 6.15155 5.17348 6.09686C5.22104 6.04216 5.27992 5.99846 5.34605 5.96878C5.41218 5.93911 5.48397 5.92416 5.55644 5.92498C5.67556 5.92325 5.79138 5.9641 5.88305 6.04019C5.97471 6.11627 6.0362 6.22258 6.05644 6.33998C6.15061 6.78944 6.39658 7.1928 6.75304 7.48232C7.10949 7.77184 7.55472 7.92987 8.01394 7.92987C8.47316 7.92987 8.91839 7.77184 9.27485 7.48232C9.63131 7.1928 9.87728 6.78944 9.97144 6.33998C9.99168 6.22258 10.0532 6.11627 10.1448 6.04019C10.2365 5.9641 10.3523 5.92325 10.4714 5.92498C10.5439 5.92416 10.6157 5.93911 10.6818 5.96878C10.748 5.99846 10.8068 6.04216 10.8544 6.09686C10.902 6.15155 10.9371 6.21593 10.9573 6.28554C10.9775 6.35515 10.9823 6.42832 10.9714 6.49998C10.8342 7.18452 10.4624 7.79974 9.92031 8.23966C9.37817 8.67957 8.69958 8.91663 8.00144 8.90998Z" fill="black"/>
<path d="M12.4507 15.5H3.5507C3.34725 15.5003 3.14587 15.4591 2.95881 15.3791C2.77176 15.2991 2.60294 15.1818 2.46262 15.0345C2.32231 14.8871 2.21343 14.7128 2.14262 14.5221C2.0718 14.3313 2.04053 14.1282 2.0507 13.925L2.4557 5.305C2.47247 4.91854 2.63787 4.55351 2.91738 4.28611C3.19689 4.01871 3.56889 3.86963 3.9557 3.87H12.0457C12.4325 3.86963 12.8045 4.01871 13.084 4.28611C13.3635 4.55351 13.5289 4.91854 13.5457 5.305L13.9507 13.925C13.9609 14.1282 13.9296 14.3313 13.8588 14.5221C13.788 14.7128 13.6791 14.8871 13.5388 15.0345C13.3985 15.1818 13.2297 15.2991 13.0426 15.3791C12.8555 15.4591 12.6542 15.5003 12.4507 15.5ZM3.9557 4.875C3.8231 4.875 3.69592 4.92767 3.60215 5.02144C3.50838 5.11521 3.4557 5.24239 3.4557 5.375L3.0507 13.975C3.04731 14.0427 3.05774 14.1104 3.08134 14.174C3.10495 14.2376 3.14124 14.2957 3.18801 14.3448C3.23478 14.3939 3.29105 14.433 3.35341 14.4597C3.41576 14.4864 3.48289 14.5001 3.5507 14.5H12.4507C12.5185 14.5001 12.5857 14.4864 12.648 14.4597C12.7104 14.433 12.7666 14.3939 12.8134 14.3448C12.8602 14.2957 12.8965 14.2376 12.9201 14.174C12.9437 14.1104 12.9541 14.0427 12.9507 13.975L12.5457 5.355C12.5457 5.22239 12.493 5.09521 12.3993 5.00144C12.3055 4.90767 12.1783 4.855 12.0457 4.855L3.9557 4.875Z" fill="black"/>
<path d="M11 4.375H10V3.5C10 2.96957 9.78929 2.46086 9.41421 2.08579C9.03914 1.71071 8.53043 1.5 8 1.5C7.46957 1.5 6.96086 1.71071 6.58579 2.08579C6.21071 2.46086 6 2.96957 6 3.5V4.375H5V3.5C5 2.70435 5.31607 1.94129 5.87868 1.37868C6.44129 0.81607 7.20435 0.5 8 0.5C8.79565 0.5 9.55871 0.81607 10.1213 1.37868C10.6839 1.94129 11 2.70435 11 3.5V4.375Z" fill="black"/>
</svg>
