<svg width="16" height="16" viewBox="0 0 16 16" fill="none" xmlns="http://www.w3.org/2000/svg">
<path d="M8.03841 13.3334C6.55663 13.3334 5.2973 12.8149 4.26041 11.778C3.22352 10.7412 2.70508 9.48182 2.70508 8.00005C2.70508 6.64938 3.14508 5.47827 4.02508 4.48671C4.90508 3.49516 5.99486 2.90982 7.29441 2.73071C7.33041 2.73071 7.36574 2.73205 7.40041 2.73471C7.43508 2.73738 7.46908 2.74116 7.50241 2.74605C7.27752 3.05982 7.09952 3.40871 6.96841 3.79271C6.8373 4.17671 6.77174 4.57916 6.77174 5.00005C6.77174 6.18538 7.18641 7.19271 8.01575 8.02205C8.84508 8.85138 9.85263 9.26627 11.0384 9.26671C11.4611 9.26671 11.864 9.20116 12.2471 9.07004C12.6302 8.93893 12.9742 8.76093 13.2791 8.53605C13.2844 8.56938 13.2882 8.60338 13.2904 8.63805C13.2926 8.67271 13.294 8.70805 13.2944 8.74405C13.1237 10.0432 12.5426 11.1327 11.5511 12.0127C10.5595 12.8927 9.38908 13.3329 8.03841 13.3334ZM8.03774 12.6667C9.01552 12.6667 9.8933 12.3972 10.6711 11.858C11.4489 11.3189 12.0155 10.6163 12.3711 9.75005C12.1489 9.8056 11.9266 9.85005 11.7044 9.88338C11.4822 9.91671 11.26 9.93338 11.0377 9.93338C9.67152 9.93338 8.50774 9.45293 7.54641 8.49205C6.58508 7.53116 6.10463 6.36716 6.10508 5.00005C6.10508 4.77782 6.12174 4.5556 6.15508 4.33338C6.18841 4.11116 6.23286 3.88893 6.28841 3.66671C5.42174 4.02227 4.71886 4.58894 4.17974 5.36671C3.64063 6.14449 3.3713 7.02227 3.37174 8.00005C3.37174 9.28893 3.8273 10.3889 4.73841 11.3C5.64952 12.2112 6.74886 12.6667 8.03774 12.6667Z" fill="black"/>
</svg>
