<svg width="16" height="16" viewBox="0 0 16 16" fill="none" xmlns="http://www.w3.org/2000/svg">
<g clip-path="url(#clip0_685_84968)">
<path d="M1.33398 8.00004C1.33398 11.682 4.31865 14.6667 8.00065 14.6667C11.6827 14.6667 14.6673 11.682 14.6673 8.00004C14.6673 4.31804 11.6827 1.33337 8.00065 1.33337C4.31865 1.33337 1.33398 4.31804 1.33398 8.00004Z" stroke="black" stroke-linecap="round" stroke-linejoin="round"/>
<path d="M8.66724 1.3667C8.66724 1.3667 10.6672 4.00003 10.6672 8.00003C10.6672 12 8.66724 14.6334 8.66724 14.6334M7.33391 14.6334C7.33391 14.6334 5.33391 12 5.33391 8.00003C5.33391 4.00003 7.33391 1.3667 7.33391 1.3667M1.75391 10.3334H14.2472M1.75391 5.6667H14.2472" stroke="black" stroke-linecap="round" stroke-linejoin="round"/>
</g>
<defs>
<clipPath id="clip0_685_84968">
<rect width="16" height="16" fill="white"/>
</clipPath>
</defs>
</svg>
