<svg width="22" height="16" viewBox="0 0 22 16" fill="none" xmlns="http://www.w3.org/2000/svg">
<path fill-rule="evenodd" clip-rule="evenodd" d="M17.8842 3.63604C17.531 3.54611 17.1701 3.50084 16.808 3.50106C13.9407 3.50106 11.6169 6.29944 11.6169 9.75002C11.6169 13.2016 13.9407 16 16.808 16C19.6753 16 22 13.2027 22 9.75002C22 9.64904 21.9982 9.54704 21.9936 9.44607H22C22 4.23775 18.48 0 14.1533 0V2.09775C15.5567 2.09775 16.8511 2.67268 17.8842 3.63604ZM6.26633 3.63604C5.91983 3.54743 5.5605 3.50106 5.192 3.50106C2.32467 3.50106 0 6.29944 0 9.75002C0 13.2016 2.32467 16 5.192 16C8.05933 16 10.3831 13.2027 10.3831 9.75002C10.3831 9.64904 10.3812 9.54704 10.3767 9.44607H10.3831C10.3831 4.23775 6.86308 0 2.53642 0V2.09775C3.94075 2.09775 5.23325 2.67268 6.26633 3.63604Z" fill="white"/>
</svg>
